<?xml version="1.0" encoding="UTF-8" standalone="no"?>
<svg width="38px" height="38px" viewBox="0 0 38 38" version="1.1" xmlns="http://www.w3.org/2000/svg" xmlns:xlink="http://www.w3.org/1999/xlink">
    <!-- Generator: Sketch 41.2 (35397) - http://www.bohemiancoding.com/sketch -->
    <title>Artboard</title>
    <desc>Created with Sketch.</desc>
    <defs></defs>
    <g id="Page-1" stroke="none" stroke-width="1" fill="none" fill-rule="evenodd">
        <g id="Artboard">
            <g id="wechat">
                <circle id="Oval" fill="#0DC500" cx="19" cy="19" r="19"></circle>
                <path d="M14.3840681,14.4496024 C14.3840681,14.1588411 14.2954227,13.9248172 14.1181292,13.7475237 C13.9408357,13.5702302 13.7068118,13.4815848 13.4160505,13.4815848 C13.1111057,13.4815848 12.8416237,13.5720031 12.6075963,13.7528425 C12.3735689,13.9336818 12.2565569,14.1659328 12.2565569,14.4496024 C12.2565569,14.7261802 12.3735689,14.9548854 12.6075963,15.1357247 C12.8416237,15.3165641 13.1111057,15.4069824 13.4160505,15.4069824 C13.7068118,15.4069824 13.9408357,15.3201099 14.1181292,15.1463623 C14.2954227,14.9726147 14.3840681,14.7403637 14.3840681,14.4496024 Z M22.287772,19.8428432 C22.287772,19.6442745 22.1973537,19.4669837 22.0165144,19.3109654 C21.835675,19.1549471 21.603424,19.0769392 21.3197545,19.0769392 C21.1282775,19.0769392 20.9527596,19.15672 20.7931955,19.3162842 C20.6336313,19.4758483 20.5538504,19.6513662 20.5538504,19.8428432 C20.5538504,20.0414119 20.6336313,20.2204756 20.7931955,20.3800398 C20.9527596,20.5396039 21.1282775,20.6193848 21.3197545,20.6193848 C21.603424,20.6193848 21.835675,20.5413768 22.0165144,20.3853585 C22.1973537,20.2293403 22.287772,20.0485036 22.287772,19.8428432 Z M19.7773089,14.4496024 C19.7773089,14.1588411 19.6904364,13.9248172 19.5166888,13.7475237 C19.3429411,13.5702302 19.1106902,13.4815848 18.8199289,13.4815848 C18.5149841,13.4815848 18.245502,13.5720031 18.0114746,13.7528425 C17.7774472,13.9336818 17.6604353,14.1659328 17.6604353,14.4496024 C17.6604353,14.7261802 17.7774472,14.9548854 18.0114746,15.1357247 C18.245502,15.3165641 18.5149841,15.4069824 18.8199289,15.4069824 C19.1106902,15.4069824 19.3429411,15.3201099 19.5166888,15.1463623 C19.6904364,14.9726147 19.7773089,14.7403637 19.7773089,14.4496024 Z M26.5321568,19.8428432 C26.5321568,19.6442745 26.4399656,19.4669837 26.2555804,19.3109654 C26.0711951,19.1549471 25.8407171,19.0769392 25.5641392,19.0769392 C25.3726623,19.0769392 25.1971444,19.15672 25.0375802,19.3162842 C24.8780161,19.4758483 24.7982352,19.6513662 24.7982352,19.8428432 C24.7982352,20.0414119 24.8780161,20.2204756 25.0375802,20.3800398 C25.1971444,20.5396039 25.3726623,20.6193848 25.5641392,20.6193848 C25.8407171,20.6193848 26.0711951,20.5413768 26.2555804,20.3853585 C26.4399656,20.2293403 26.5321568,20.0485036 26.5321568,19.8428432 Z M23.702567,15.6197335 C23.482723,15.5913666 23.2345159,15.5771833 22.9579381,15.5771833 C21.7594341,15.5771833 20.6566852,15.8502112 19.6496582,16.3962751 C18.6426312,16.942339 17.8501412,17.6816418 17.2721645,18.6142055 C16.6941877,19.5467692 16.4052037,20.5661915 16.4052037,21.6725028 C16.4052037,22.2256585 16.4867575,22.7646226 16.6498675,23.2894113 C16.4016566,23.3106865 16.1605411,23.3213239 15.9265137,23.3213239 C15.7421284,23.3213239 15.5648376,23.3160052 15.3946359,23.3053676 C15.2244341,23.29473 15.0294142,23.2716822 14.8095703,23.2362235 C14.5897264,23.2007648 14.4319376,23.1759441 14.3361991,23.1617606 C14.2404606,23.1475771 14.0472136,23.1103461 13.7564523,23.0500663 C13.465691,22.9897865 13.2884002,22.9525554 13.2245745,22.9383719 L10.5332729,24.2893415 L11.2991769,21.9703544 C9.24257249,20.5307313 8.21428571,18.7932812 8.21428571,16.757952 C8.21428571,15.5594481 8.56000282,14.4566991 9.25144741,13.4496722 C9.94289199,12.4426452 10.8789875,11.6501552 12.0597621,11.0721784 C13.2405367,10.4942017 14.529441,10.2052176 15.9265137,10.2052176 C17.1746598,10.2052176 18.3536438,10.4392415 19.463501,10.9072963 C20.5733582,11.3753511 21.5023621,12.0224626 22.2505406,12.8486503 C22.9987191,13.6748379 23.482723,14.5985231 23.702567,15.6197335 Z M30,21.5874023 C30,22.4171358 29.7571116,23.2096258 29.2713274,23.9648961 C28.7855433,24.7201663 28.1277943,25.4062818 27.2980608,26.0232631 L27.8831264,27.9486607 L25.7662528,26.7891671 C24.7024919,27.0515615 23.9295039,27.1827567 23.4472656,27.1827567 C22.2487617,27.1827567 21.1460128,26.9327766 20.1389858,26.432809 C19.1319588,25.9328414 18.3394688,25.2538175 17.761492,24.3957171 C17.1835153,23.5376166 16.8945312,22.6015211 16.8945312,21.5874023 C16.8945312,20.5732836 17.1835153,19.6371881 17.761492,18.7790876 C18.3394688,17.9209872 19.1319588,17.2419633 20.1389858,16.7419957 C21.1460128,16.2420281 22.2487617,15.992048 23.4472656,15.992048 C24.5890357,15.992048 25.663418,16.2420281 26.670445,16.7419957 C27.677472,17.2419633 28.4841453,17.9227601 29.090489,18.7844064 C29.6968327,19.6460527 30,20.5803754 30,21.5874023 Z" id="" fill="#FFFFFF"></path>
            </g>
        </g>
    </g>
</svg>