<?xml version="1.0" encoding="UTF-8" standalone="no"?>
<svg width="38px" height="38px" viewBox="0 0 38 38" version="1.1" xmlns="http://www.w3.org/2000/svg" xmlns:xlink="http://www.w3.org/1999/xlink">
    <g id="Page-1" stroke="none" stroke-width="1" fill="none" fill-rule="evenodd">
        <g id="weibo">
            <g id="Group-Copy-2" fill="#FFFFFF">
                <circle id="Oval-Copy" cx="19" cy="19" r="19"></circle>
            </g>
            <g id="Page-1" transform="translate(8.000000, 9.000000)">
                <g id="Group-3" transform="translate(15.246212, 0.184321)" fill="#F29600">
                    <path d="M6.99265341,2.30671875 C7.76498295,3.14872509 8.26462311,4.12454031 8.49113826,5.23373415 C8.71765341,6.34335824 8.65753977,7.40221241 8.31123295,8.41115716 C8.23151705,8.64779665 8.08036174,8.82334013 7.85820265,8.93735734 C7.63647917,9.05137455 7.40560795,9.06858469 7.16602462,8.98984828 C6.92600568,8.91111187 6.74827841,8.76181386 6.6328428,8.54238451 C6.5174072,8.32338542 6.49519129,8.095351 6.56663068,7.85828125 C6.81492614,7.13932745 6.85935795,6.38509284 6.69949053,5.59557745 C6.53962311,4.8064923 6.18460417,4.11335371 5.63399811,3.51702219 C5.08339205,2.9120856 4.42649811,2.49301857 3.66288068,2.26068161 C2.89926326,2.02834466 2.13128977,1.99091259 1.35852462,2.14881567 C1.10979356,2.20130661 0.878922348,2.16000226 0.665910985,2.02404212 C0.452899621,1.88808197 0.319604167,1.69704937 0.266460227,1.4518048 C0.212880682,1.20612998 0.25513447,0.98024683 0.392785985,0.774155344 C0.5304375,0.568063859 0.723846591,0.438557518 0.972142045,0.386066576 C2.06464205,0.158032156 3.14799432,0.20837183 4.22219886,0.537085598 C5.29683902,0.86622962 6.22032386,1.45610734 6.99265341,2.30671875" id="Fill-1"></path>
                </g>
                <path d="M19.8280473,4.63542346 C20.2009261,5.04760643 20.4431231,5.52346694 20.553767,6.06300498 C20.6648466,6.60211277 20.6360966,7.11755661 20.467517,7.608476 C20.3965133,7.81026495 20.2653958,7.95956295 20.0746004,8.05593976 C19.8833693,8.15231658 19.6860398,8.16995697 19.4817405,8.10843071 C19.2774413,8.03829937 19.1267216,7.90922328 19.0287102,7.72034194 C18.9311345,7.53189085 18.9132746,7.33655571 18.9755663,7.13519701 C19.1532936,6.58232111 19.0465701,6.09570426 18.6558314,5.67491621 C18.2650928,5.25369792 17.7902822,5.10009737 17.230964,5.21411458 C17.017517,5.25800045 16.8180095,5.22314991 16.6315701,5.1091327 C16.4451307,4.99511549 16.3340511,4.83290987 16.2983314,4.6220856 C16.2538996,4.41169158 16.2896193,4.21678668 16.4050549,4.03694067 C16.5204905,3.85709466 16.684714,3.74522871 16.8977254,3.70134284 C17.4304716,3.58732563 17.9588617,3.61141984 18.4828958,3.77362545 C19.0064943,3.93583107 19.4551686,4.22324049 19.8280473,4.63542346" id="Fill-4" fill="#F29600"></path>
                <path d="M20.8182235,12.8626042 C20.8182235,13.4589357 20.654,14.0707563 20.325553,14.6976359 C19.9966705,15.3249457 19.5127121,15.9255797 18.873678,16.4999683 C18.2342083,17.0747871 17.4862727,17.5898007 16.6294356,18.0458696 C15.7725985,18.5019384 14.7689621,18.865933 13.6189621,19.1378533 C12.4689621,19.4097736 11.2684318,19.5457337 10.0160644,19.5457337 C8.76413258,19.5457337 7.54312879,19.3990172 6.35348864,19.105154 C5.16341288,18.8112908 4.09574242,18.4034103 3.15004167,17.8815127 C2.20434091,17.359615 1.44290152,16.6974547 0.865723485,15.8950317 C0.288545455,15.0926087 0.000174242425,14.2174728 0.000174242425,13.2704846 C0.000174242425,12.2619701 0.308583333,11.1876268 0.925837121,10.0474547 C1.5426553,8.90728261 2.4195303,7.77571558 3.55646212,6.65318388 C5.057125,5.17096014 6.57303409,4.13576993 8.10506061,3.54847373 C9.63665152,2.96074728 10.7308939,2.99129529 11.3882235,3.64054801 C11.9654015,4.20159873 12.0542652,5.11803895 11.6543788,6.38986866 C11.6190947,6.5129212 11.6147386,6.60026268 11.6413106,6.65318388 C11.6678826,6.70567482 11.7123144,6.73622283 11.7741705,6.74525815 C11.8364621,6.75386322 11.9009318,6.75171196 11.9675795,6.73880435 C12.0342273,6.72546649 12.0939053,6.70997736 12.1474848,6.69276721 L12.2272008,6.66609149 C13.4612727,6.14892663 14.5537727,5.88991395 15.5038295,5.88991395 C16.4538864,5.88991395 17.1329962,6.1575317 17.5415947,6.69276721 C17.9410455,7.24521286 17.9410455,8.02569293 17.5415947,9.03420743 C17.5237348,9.14822464 17.503697,9.23599638 17.4819167,9.29752264 C17.4597008,9.35861866 17.479303,9.41369112 17.5415947,9.46187953 C17.6038864,9.51006793 17.6570303,9.54276721 17.7014621,9.56040761 C17.7458939,9.57804801 17.8212538,9.60429348 17.9279773,9.63957428 C18.4341515,9.79747736 18.8915379,10.0035688 19.2997008,10.2578487 C19.7082992,10.5121286 20.0633182,10.8696694 20.3651932,11.3300408 C20.6670682,11.7904121 20.8182235,12.3011232 20.8182235,12.8626042" id="Fill-6" fill="#E32529"></path>
                <path d="M16.680358,12.8277966 C16.600642,11.9857903 16.2051117,11.2401608 15.4950739,10.5913383 C14.7846004,9.94251585 13.8589375,9.46450408 12.7176496,9.15730299 C11.5767973,8.85053216 10.3579716,8.75845788 9.06160795,8.88108016 C7.0813428,9.08286911 5.44085038,9.70329484 4.14013068,10.7427876 C2.83941098,11.7818501 2.2509072,12.9418139 2.37549053,14.2222486 C2.45520644,15.064255 2.85030114,15.8098845 3.56077462,16.458707 C4.27124811,17.1079597 5.19691098,17.5859715 6.33776326,17.8927423 C7.47905114,18.1995131 8.69744129,18.2920177 9.99380492,18.1689651 C11.9740701,17.9671762 13.6145625,17.3467505 14.9157178,16.307688 C16.2164375,15.2681952 16.8045057,14.1082314 16.680358,12.8277966" id="Fill-8" fill="#FFFFFF"></path>
                <path d="M12.3456856,14.9090195 C11.9462348,15.8035168 11.2444735,16.4613745 10.2412727,16.8825928 C9.23763636,17.3033809 8.24314773,17.3558718 7.25780682,17.0400657 C6.30775,16.7418999 5.65259848,16.187303 5.29322348,15.3758447 C4.93341288,14.5648166 4.96216288,13.7426019 5.37947348,12.9092006 C5.79678409,12.09387 6.46979545,11.4842006 7.39763636,11.0806227 C8.32547727,10.6774751 9.25985227,10.5940059 10.201197,10.8306454 C11.1869735,11.0849253 11.8904773,11.6089742 12.3125795,12.4027921 C12.7342462,13.1966101 12.7451364,14.0321626 12.3456856,14.9090195" id="Fill-10" fill="#000000"></path>
                <path d="M9.96178788,13.2937183 C10.0327917,13.1797011 10.0484735,13.0635326 10.0083977,12.9452129 C9.96832197,12.8268931 9.89078409,12.7455752 9.77534848,12.7016893 C9.65120076,12.6578034 9.52443939,12.6599547 9.39593561,12.7081431 C9.26699621,12.7563315 9.17159848,12.8376495 9.10930682,12.9516667 C8.95858712,13.223587 9.01608712,13.4210734 9.28267803,13.5436957 C9.40682576,13.5875815 9.53576515,13.5854303 9.668625,13.5372418 C9.80192045,13.4890534 9.89949621,13.4077355 9.96178788,13.2937183" id="Fill-12" fill="#FFFFFF"></path>
                <path d="M8.70976894,14.8855276 C8.89620833,14.5873619 8.94499621,14.2848936 8.85613258,13.9776925 C8.76770455,13.6709216 8.56776136,13.4514923 8.25673864,13.3198347 C7.95486364,13.1972124 7.63077273,13.1929099 7.28446591,13.3069271 C6.93815909,13.4209443 6.67200379,13.6227332 6.48556439,13.9118637 C6.28997727,14.2100294 6.23247727,14.5107767 6.31219318,14.813245 C6.3923447,15.1157133 6.58314015,15.3372939 6.88501515,15.4775566 C7.18689015,15.6178193 7.51751515,15.6290059 7.87732576,15.5102559 C8.23713636,15.3919361 8.51461742,15.1836934 8.70976894,14.8855276" id="Fill-14" fill="#FFFFFF"></path>
            </g>
        </g>
    </g>
</svg>
