<?xml version="1.0" standalone="no"?><!DOCTYPE svg PUBLIC "-//W3C//DTD SVG 1.1//EN" "http://www.w3.org/Graphics/SVG/1.1/DTD/svg11.dtd"><svg t="1490444128319" class="icon" style="" viewBox="0 0 1060 1024" version="1.1" xmlns="http://www.w3.org/2000/svg" p-id="5124" xmlns:xlink="http://www.w3.org/1999/xlink" width="49.6875" height="48"><defs><style type="text/css"></style></defs><path d="M719.881481 162.909091 724.967003 162.909091C734.448485 170.149495 746.774411 173.16633 755.307744 181.613468 755.56633 192.560269 754.962963 203.420875 753.583838 214.281481 749.187879 216.005387 740.39596 219.453199 736 221.177104 730.828283 221.004714 720.484848 220.832323 715.313131 220.659933 709.020875 210.575084 702.814815 200.40404 696.436364 190.405387 701.004714 188.422896 710.227609 184.457912 714.79596 182.475421 716.088889 177.648485 718.588552 167.822222 719.881481 162.909091Z" p-id="5125" fill="#ffffff"></path><path d="M541.62963 213.419529C547.232323 202.041751 544.301684 183.76835 557.403367 177.648485 569.901684 182.389226 576.624916 194.973737 585.675421 204.024242 599.639057 203.33468 613.688889 202.989899 627.738721 203.076094 624.63569 217.298316 616.791919 229.624242 609.120539 241.691582 614.292256 254.965657 619.550168 268.412121 620.843098 282.720539 607.396633 280.565657 593.863973 278.324579 580.417508 275.997306 568.350168 281.427609 559.90303 294.615488 546.284175 296.080808 534.30303 288.495623 541.198653 269.963636 537.492256 257.982492 525.252525 250.138721 513.357576 241.777778 502.583165 231.951515 515.340067 225.314478 528.441751 219.194613 541.62963 213.419529Z" p-id="5126" fill="#ffffff"></path><path d="M270.63165 254.276094C287.26734 234.278788 289.508418 188.3367 322.693603 193.336027 338.381145 210.402694 345.535354 233.244444 356.482155 253.414141 379.927273 257.982492 405.441077 256.344781 427.248485 266.860606 441.039731 295.736027 397.855892 311.682155 383.116498 331.851852 385.09899 355.641751 396.821549 380.121212 390.443098 403.738721 363.894949 418.650505 338.984512 388.740741 314.160269 380.810774 289.680808 388.740741 265.632323 417.960943 239.084175 405.376431 230.637037 381.672727 243.738721 356.158923 245.20404 331.851852 228.654545 316.16431 210.46734 301.769697 196.676094 283.323906 199.606734 249.276768 247.100337 261.947475 270.63165 254.276094Z" p-id="5127" fill="#ffffff"></path><path d="M755.824916 300.304377C770.391919 313.061279 787.286195 321.249832 807.197306 319.870707 802.715152 327.628283 798.146801 335.299663 793.664646 342.971044 795.733333 349.780471 799.870707 363.399327 801.939394 370.294949 782.976431 362.623569 765.564983 370.122559 749.274074 379.690236 748.498316 373.484175 746.860606 360.899663 746.084848 354.693603 738.413468 348.487542 730.828283 342.195286 723.243098 335.90303 731.948822 332.110438 740.56835 328.40404 749.274074 324.783838 750.911785 318.663973 754.187205 306.424242 755.824916 300.304377Z" p-id="5128" fill="#ffffff"></path><path d="M577.400673 397.015488C593.088215 384.344781 591.881481 353.573064 615.67138 351.504377 627.480135 364.778451 633.944781 381.586532 642.133333 397.101684 660.061953 402.273401 685.575758 396.498316 697.298316 413.134007 691.695623 431.235017 673.249832 441.061279 661.268687 454.593939 663.251178 471.919192 670.232997 489.416835 666.69899 506.914478 647.218855 516.223569 628.859259 496.226263 611.016835 490.020202 595.674074 497.863973 580.589899 506.483502 564.29899 512.086195 542.232997 500.967003 561.454545 472.781145 560.851178 454.593939 550.249158 439.509764 517.839731 427.52862 529.56229 405.893603 545.249832 401.670034 561.626936 400.721886 577.400673 397.015488Z" p-id="5129" fill="#ffffff"></path><path d="M354.327273 548.632997C378.289562 502.346128 400.527946 455.024916 426.127946 409.6 429.834343 411.151515 437.074747 414.254545 440.694949 415.806061 466.381145 458.558923 486.378451 504.673401 509.651178 548.805387 556.8 555.873401 604.035017 561.73468 651.183838 569.061279 660.406734 570.268013 667.474747 575.094949 672.387879 583.369697 635.496296 621.209428 595.93266 656.377104 557.920539 693.182492 566.109091 743.434343 577.400673 793.341414 583.348148 843.938047 580.503704 845.920539 574.72862 849.799327 571.884175 851.781818 523.614815 832.387879 478.965657 804.719192 432.075421 782.222222 386.219529 804.546801 342.087542 830.232997 295.628283 851.006061 291.490909 849.713131 283.129966 847.213468 278.992593 846.006734 288.129293 794.979125 297.093603 743.951515 306.144108 692.923906 267.959596 656.63569 229.257912 620.778451 191.590572 583.886869 194.521212 580.697643 200.296296 574.405387 203.226936 571.216162 253.220202 561.648485 304.075421 556.993939 354.327273 548.632997Z" p-id="5130" fill="#ffffff"></path><path d="M793.061279 485.796633C797.543434 477.780471 802.025589 469.850505 806.593939 461.920539 812.196633 469.850505 817.626936 477.780471 822.971044 485.882828 831.935354 487.606734 840.813468 489.33064 849.777778 491.054545 836.158923 504.845791 830.297643 522.257239 831.331987 541.478788 815.041077 528.808081 797.888215 533.807407 781.338721 541.823569 781.597306 534.927946 782.200673 521.222896 782.459259 514.327273 776.59798 506.655892 770.909091 498.984512 765.306397 491.140741 772.20202 489.847811 786.079461 487.175758 793.061279 485.796633Z" p-id="5131" fill="#ffffff"></path><path d="M733.672727 666.634343C749.274074 647.757576 750.308418 606.642424 779.70101 606.72862 791.940741 625.691582 800.991246 646.378451 811.33468 666.461953 834.607407 673.443771 868.999327 665.082828 883.307744 686.976431 871.67138 707.404714 850.984512 720.937374 834.865993 737.745455 835.986532 761.018182 851.156902 786.876768 840.813468 808.856566 815.989226 811.442424 795.043771 790.410774 772.719192 781.446465 750.049832 789.462626 728.673401 813.424916 704.021549 807.994613 695.315825 785.842424 709.107071 760.673401 710.4 737.400673 693.591919 721.540741 675.83569 706.456566 661.096296 688.614141 674.456566 663.617508 710.141414 674.047138 733.672727 666.634343Z" p-id="5132" fill="#ffffff"></path></svg>